<?xml version="1.0" encoding="iso-8859-1"?>
<!-- Generator: Adobe Illustrator 19.0.0, SVG Export Plug-In . SVG Version: 6.00 Build 0)  -->
<svg version="1.1" id="Capa_1" xmlns="http://www.w3.org/2000/svg" xmlns:xlink="http://www.w3.org/1999/xlink" x="0px" y="0px"
	 viewBox="0 0 512 512" style="enable-background:new 0 0 512 512;" xml:space="preserve">
<g>
	<g>
		<rect x="85.333" y="341.333" width="256" height="21.333"/>
	</g>
</g>
<g>
	<g>
		<path d="M85.333,384v53.333C85.333,443.221,90.112,448,96,448h234.667c5.888,0,10.667-4.779,10.667-10.667V384H85.333z"/>
	</g>
</g>
<g>
	<g>
		<path d="M373.333,64H160c-41.173,0-74.667,33.493-74.667,74.667V320h256V117.333c0-17.643,14.357-32,32-32
			c5.888,0,10.667-4.779,10.667-10.667S379.221,64,373.333,64z"/>
	</g>
</g>
<g>
	<g>
		<path d="M96,106.667H53.333c-5.888,0-10.667,4.779-10.667,10.667S47.445,128,53.333,128H96c5.888,0,10.667-4.779,10.667-10.667
			S101.888,106.667,96,106.667z"/>
	</g>
</g>
<g>
	<g>
		<path d="M373.333,64c-5.888,0-10.667,4.779-10.667,10.667c0,5.099,3.627,9.152,8.405,10.219l-0.149,0.704
			c0.789-0.064,1.579-0.256,2.411-0.256C379.221,85.333,384,90.112,384,96s-4.779,10.667-10.667,10.667
			c-3.2,0-5.973,1.493-7.936,3.712l-2.731,12.288V128h64v-10.667C426.667,87.936,402.752,64,373.333,64z"/>
	</g>
</g>
<g>
	<g>
		<circle cx="32" cy="117.333" r="32"/>
	</g>
</g>
<g>
	<g>
		<circle cx="480" cy="117.333" r="32"/>
	</g>
</g>
<g>
	<g>
		<rect x="362.667" y="149.333" width="64" height="42.667"/>
	</g>
</g>
<g>
	<g>
		<path d="M362.667,213.333v64H416c5.888,0,10.667-4.779,10.667-10.667v-53.333H362.667z"/>
	</g>
</g>
<g>
	<g>
		<path d="M458.667,106.667h-85.333c-5.867,0-10.667,4.779-10.667,10.667V128h96c5.888,0,10.667-4.779,10.667-10.667
			S464.555,106.667,458.667,106.667z"/>
	</g>
</g>
<g>
</g>
<g>
</g>
<g>
</g>
<g>
</g>
<g>
</g>
<g>
</g>
<g>
</g>
<g>
</g>
<g>
</g>
<g>
</g>
<g>
</g>
<g>
</g>
<g>
</g>
<g>
</g>
<g>
</g>
</svg>
