<svg viewBox="0 0 512 512" xmlns="http://www.w3.org/2000/svg"><path d="m53.5 211c28.996094 0 52.5-23.503906 52.5-52.5v-68.5h-106v68.5c0 28.996094 24.503906 52.5 53.5 52.5zm0 0"/><path d="m241 158.5v-68.5h-105v68.5c0 28.996094 23.503906 52.5 52.5 52.5s52.5-23.503906 52.5-52.5zm0 0"/><path d="m376 90h-105v68.5c0 28.996094 23.503906 52.5 52.5 52.5s52.5-23.503906 52.5-52.5zm0 0"/><path d="m512 90h-106v68.5c0 28.996094 23.503906 52.5 52.5 52.5s53.5-23.503906 53.5-52.5zm0 0"/><path d="m512 221.609375c-14.308594 11.921875-33.457031 19.390625-53.5 19.390625s-38.191406-7.46875-52.5-19.390625v86.890625c0 28.996094 23.503906 52.5 52.5 52.5s53.5-23.503906 53.5-52.5zm0 0"/><path d="m376 221.609375c-14.308594 11.921875-32.457031 19.390625-52.5 19.390625s-38.191406-7.46875-52.5-19.390625v86.890625c0 28.996094 23.503906 52.5 52.5 52.5s52.5-23.503906 52.5-52.5zm0 0"/><path d="m136 308.5c0 28.996094 23.503906 52.5 52.5 52.5s52.5-23.503906 52.5-52.5v-86.890625c-14.308594 11.921875-32.457031 19.390625-52.5 19.390625s-38.191406-7.46875-52.5-19.390625zm0 0"/><path d="m53.5 361c28.996094 0 52.5-23.503906 52.5-52.5v-86.890625c-14.308594 11.921875-32.457031 19.390625-52.5 19.390625s-39.191406-7.46875-53.5-19.390625v86.890625c0 28.996094 24.503906 52.5 53.5 52.5zm0 0"/><path d="m406 371.609375v87.890625c0 28.996094 23.503906 52.5 52.5 52.5s53.5-23.503906 53.5-52.5v-87.890625c-14.308594 11.921875-33.457031 19.390625-53.5 19.390625s-38.191406-7.46875-52.5-19.390625zm0 0"/><path d="m271 371.609375v87.890625c0 28.996094 23.503906 52.5 52.5 52.5s52.5-23.503906 52.5-52.5v-87.890625c-14.308594 11.921875-32.457031 19.390625-52.5 19.390625s-38.191406-7.46875-52.5-19.390625zm0 0"/><path d="m136 459.5c0 28.996094 23.503906 52.5 52.5 52.5s52.5-23.503906 52.5-52.5v-87.890625c-14.308594 11.921875-32.457031 19.390625-52.5 19.390625s-38.191406-7.46875-52.5-19.390625zm0 0"/><path d="m53.5 512c28.996094 0 52.5-23.503906 52.5-52.5v-87.890625c-14.308594 11.921875-32.457031 19.390625-52.5 19.390625s-39.191406-7.46875-53.5-19.390625v87.890625c0 28.996094 24.503906 52.5 53.5 52.5zm0 0"/><path d="m0 0h512v60h-512zm0 0"/></svg>