<?xml version="1.0" encoding="iso-8859-1"?>
<!-- Generator: Adobe Illustrator 19.0.0, SVG Export Plug-In . SVG Version: 6.00 Build 0)  -->
<svg version="1.1" id="Layer_1" xmlns="http://www.w3.org/2000/svg" xmlns:xlink="http://www.w3.org/1999/xlink" x="0px" y="0px"
	 viewBox="0 0 512.001 512.001" style="enable-background:new 0 0 512.001 512.001;" xml:space="preserve">
<g>
	<g>
		<g>
			<path d="M170.667,25.6V8.533c0-4.713-3.82-8.533-8.533-8.533H8.534C3.821,0,0,3.82,0,8.533V25.6c0,4.713,3.82,8.533,8.533,8.533
				h153.6C166.847,34.133,170.667,30.313,170.667,25.6z"/>
			<path d="M258.902,373.589c-46.421-17.493-80.299-55.723-86.869-101.461c-0.481-4.343-4.164-7.621-8.533-7.595H44.032
				c-4.712-0.061-8.582,3.71-8.643,8.423c-0.006,0.494,0.03,0.988,0.109,1.476c7.168,39.424,43.776,56.661,66.901,74.752
				c32.512,25.6,56.576,68.267,44.459,152.917c-0.754,4.652,2.405,9.035,7.057,9.789c0.488,0.079,0.982,0.116,1.476,0.109h78.763
				c3.176,0.023,6.102-1.719,7.595-4.523c18.517-36.437,22.784-81.493,22.784-125.867
				C264.532,378.018,262.28,374.811,258.902,373.589z"/>
			<path d="M153.6,238.933v-128h17.067c4.713,0,8.533-3.82,8.533-8.533s-3.82-8.533-8.533-8.533H153.6V59.733
				c0-4.713-3.821-8.533-8.533-8.533H25.6c-4.713,0-8.533,3.82-8.533,8.533v179.2c0,4.713,3.82,8.533,8.533,8.533h119.467
				C149.78,247.467,153.6,243.646,153.6,238.933z"/>
			<path d="M384,390.315c0.04-4.713-3.748-8.565-8.461-8.605c-0.395-0.003-0.79,0.021-1.182,0.072
				c-8.094,1.373-16.282,2.115-24.491,2.219h-34.133c-8.231-0.015-16.447-0.671-24.576-1.963c-4.673-0.613-8.958,2.678-9.571,7.351
				c-0.051,0.392-0.076,0.787-0.072,1.182c-0.172,37.538-6.99,74.749-20.139,109.909c-1.65,4.414,0.591,9.331,5.005,10.981
				c0.911,0.34,1.873,0.523,2.845,0.539h127.147c4.713-0.042,8.499-3.897,8.456-8.61c-0.01-1.056-0.215-2.1-0.605-3.081
				C391.039,465.127,384.192,427.886,384,390.315z"/>
			<path d="M499.2,221.867H183.467c-7.069,0-12.8,5.731-12.8,12.8c0,7.069,5.731,12.8,12.8,12.8H499.2c7.069,0,12.8-5.731,12.8-12.8
				C512,227.597,506.27,221.867,499.2,221.867z"/>
			<path d="M469.251,264.705c-0.59-0.121-1.192-0.178-1.794-0.172H198.144c-4.712-0.095-8.609,3.647-8.704,8.359
				c-0.013,0.631,0.045,1.262,0.171,1.881c10.411,52.224,62.891,92.16,126.123,92.16h34.133c63.232,0,115.712-39.936,126.037-92.16
				C476.847,270.156,473.868,265.648,469.251,264.705z"/>
		</g>
	</g>
</g>
<g>
</g>
<g>
</g>
<g>
</g>
<g>
</g>
<g>
</g>
<g>
</g>
<g>
</g>
<g>
</g>
<g>
</g>
<g>
</g>
<g>
</g>
<g>
</g>
<g>
</g>
<g>
</g>
<g>
</g>
</svg>
