<svg xmlns="http://www.w3.org/2000/svg" viewBox="0 0 750 500"><defs><style>.cls-1{fill:#fff;}.cls-2{fill:#f0f3ff;}.cls-3{fill:#b9b8f1;}.cls-19,.cls-24,.cls-25,.cls-27,.cls-28,.cls-35,.cls-4,.cls-40,.cls-6,.cls-9{fill:none;}.cls-4{stroke:#fff;}.cls-19,.cls-24,.cls-25,.cls-27,.cls-28,.cls-4,.cls-40,.cls-6,.cls-9{stroke-linecap:round;stroke-linejoin:round;}.cls-4,.cls-6{stroke-width:0.79px;}.cls-5{fill:#cecef4;}.cls-6{stroke:#a1a1e5;}.cls-7{fill:#a1a1e5;}.cls-8{fill:#fafafa;}.cls-9{stroke:#b9b8f1;}.cls-40,.cls-9{stroke-width:2px;}.cls-10{opacity:0.32;}.cls-11{fill:#e9e8f9;}.cls-12{fill:#5b4daf;}.cls-13{fill:#493b91;}.cls-14{fill:#6254b6;}.cls-15{fill:#fec9cf;}.cls-16{fill:#ee84aa;}.cls-17{fill:#2d2056;}.cls-18{fill:#ffcad0;}.cls-19{stroke:#ee84aa;stroke-width:0.86px;}.cls-20{fill:#302855;}.cls-21{fill:#3b2e64;}.cls-22{fill:#e1defb;}.cls-23{fill:#ffa3e2;}.cls-24{stroke:#d1d1f2;}.cls-25,.cls-27,.cls-28{stroke:#f15b9a;}.cls-26{fill:#f15b9a;}.cls-27{stroke-width:0.63px;}.cls-28{stroke-width:0.75px;}.cls-29{fill:#e55395;}.cls-30{fill:#39337d;}.cls-31{fill:#2f2a62;}.cls-32{fill:#2c2b6d;}.cls-33{fill:#403e87;}.cls-34{fill:#f4a258;}.cls-35{stroke:#171d51;stroke-miterlimit:10;stroke-width:1.15px;}.cls-36{fill:#feb161;}.cls-37{fill:#212a6b;}.cls-38{fill:#283577;}.cls-39{fill:#222259;}.cls-40{stroke:#2a246e;}</style></defs><title>options</title><g id="BACKGROUND"><rect class="cls-1" width="750" height="500"/><path class="cls-2" d="M704.49,229.65c22.93-46.76-1.38-117.94-73.63-133-20.74-4.32-37.52.13-57.51,2.58C527.23,104.9,472.07,82.36,430.65,65,370.35,39.63,331,32.32,287.06,25.21c-29.27-4.74-83-.6-119.76,41.88-43,49.73-97.46,38.72-125.76,76.76-46.7,62.78,32.66,127.52,8.85,172.34C30.71,353.24-7.23,435.82,98.52,459.3c86.14,19.13,95-35.24,260.2-5s279.42,25.17,314.67-20.1c11.13-14.28,31.22-54.55,5.89-101.29h0C662.37,273.56,688.86,261.55,704.49,229.65Z"/></g><g id="OBJECTS"><path class="cls-3" d="M647.62,407.25c1.55-3.67,4.1-6.93,5-10.81,1.37-5.65-.92-11.72.5-17.36.65-2.58,2.81-5.3,5.4-4.75,1.89.39,3,2.31,4.6,3.37,3.05,2,7.29.53,9.92-2s4.27-5.91,6.63-8.68a21.12,21.12,0,0,1,13.52-7.18c2.22-.25,4.65-.08,6.39,1.33,2,1.65,2.57,4.69,1.82,7.2a14,14,0,0,1-4.55,6.31,30.35,30.35,0,0,1-10.94,6.06,6.88,6.88,0,0,0-3.08,1.46c-.81.83-1,2.37-.06,3,1.15.81,2.68-.28,4.08-.24a3.2,3.2,0,0,1,2.67,1.95,6.32,6.32,0,0,1,.37,3.42,12.66,12.66,0,0,1-5.79,9c-.72.45-1.56.92-1.75,1.75a2.17,2.17,0,0,0,1.09,2.1c.7.47,1.52.73,2.22,1.19,2.38,1.57,2.61,5.25,1.06,7.66s-4.35,3.7-7.13,4.37c-7.46,1.79-15.13-.08-22.68.33-2.6.14-7.34,2.4-9.16.39C645.53,414.72,646.48,410,647.62,407.25Z"/><path class="cls-4" d="M649.12,417.94s13.7-30.62,43.92-50.31"/><path class="cls-5" d="M655.12,397.37c.88-2.47,2.1-4.84,2.58-7.42s0-5.53-1.9-7.28c-2.63-2.35-7-1.72-9.7-3.94-4.56-3.7-1.47-12-5.56-16.25-2.13-2.2-5.55-2.5-8.57-2.1s-6,1.38-9.06,1.22c-3.64-.18-7-2-10.53-2.77-4.09-1-9.83-.26-10.12,4.85-.33,5.62,2.33,10.21,6,14.17,2.21,2.35,4.21,5.31,3.94,8.53-.21,2.5-1.74,4.66-2.94,6.86s-2.07,4.93-.93,7.17c1,2,3.29,3,5.48,3.31,3.16.5,6.37,0,9.57,0,6.25-.07,10.43,3.11,14.58,7.37,2.6,2.69,7.17,8.4,11.55,6.41,2.77-1.25,3.66-5.14,3.89-7.84C653.81,405.38,653.67,401.48,655.12,397.37Z"/><path class="cls-4" d="M649.56,417.47s0-25.7-35.76-49.72"/><path class="cls-6" d="M650,418s12-43.27,34.26-72.76c.33-.44,2.17-2.54,2.5-3"/><path class="cls-7" d="M651.83,411s20.48-7.71,22.85-4.74C679.69,412.58,653.18,411.72,651.83,411Z"/><path class="cls-7" d="M657.73,394.86s20.06-8.6,22.59-5.77C685.68,395.09,659.12,395.47,657.73,394.86Z"/><path class="cls-7" d="M662.68,383.1s19.17-8.82,21.7-6C689.74,383.1,664.07,383.71,662.68,383.1Z"/><path class="cls-7" d="M668.27,371.49s19.33-8.81,21.86-6C695.49,371.51,669.66,372.1,668.27,371.49Z"/><path class="cls-7" d="M676,357.51s18.37-10.3,21.16-7.72C703.05,355.24,677.43,358,676,357.51Z"/><path class="cls-7" d="M675.92,357.71s2.25-20.93-1.22-22.49C667.37,331.92,674.91,356.57,675.92,357.71Z"/><path class="cls-7" d="M669.61,369.45s2.25-20.93-1.21-22.49C661.06,343.66,668.61,368.31,669.61,369.45Z"/><path class="cls-7" d="M662.73,383.84s1-21-2.53-22.38C652.69,358.6,661.66,382.76,662.73,383.84Z"/><path class="cls-7" d="M658,395.26s-1.76-21-5.46-21.85C644.75,371.56,656.84,394.33,658,395.26Z"/><path class="cls-7" d="M652.11,410.85s-1.76-21-5.46-21.85C638.82,387.16,650.91,409.92,652.11,410.85Z"/><path class="cls-7" d="M685.28,343.89s8.89-19.74,12.66-19.33C705.94,325.42,686.72,343.41,685.28,343.89Z"/><path class="cls-3" d="M102.38,407.25c-1.55-3.67-4.1-6.93-5-10.81-1.37-5.65.92-11.72-.5-17.36-.65-2.58-2.81-5.3-5.4-4.75-1.89.39-3,2.31-4.6,3.37-3,2-7.29.53-9.92-2S72.66,369.8,70.3,367a21.12,21.12,0,0,0-13.52-7.18c-2.22-.25-4.65-.08-6.39,1.33-2,1.65-2.57,4.69-1.82,7.2a14,14,0,0,0,4.55,6.31,30.35,30.35,0,0,0,10.94,6.06,6.88,6.88,0,0,1,3.08,1.46c.81.83,1,2.37.06,3-1.15.81-2.68-.28-4.08-.24A3.2,3.2,0,0,0,60.45,387a6.32,6.32,0,0,0-.37,3.42,12.66,12.66,0,0,0,5.79,9c.72.45,1.56.92,1.75,1.75a2.17,2.17,0,0,1-1.09,2.1c-.7.47-1.52.73-2.22,1.19-2.38,1.57-2.61,5.25-1.06,7.66s4.35,3.7,7.13,4.37c7.46,1.79,15.13-.08,22.68.33,2.6.14,7.34,2.4,9.16.39C104.47,414.72,103.52,410,102.38,407.25Z"/><path class="cls-4" d="M100.88,417.94S87.18,387.32,57,367.63"/><path class="cls-5" d="M94.88,397.37c-.88-2.47-2.1-4.84-2.58-7.42s0-5.53,1.9-7.28c2.63-2.35,7-1.72,9.7-3.94,4.56-3.7,1.47-12,5.56-16.25,2.13-2.2,5.55-2.5,8.57-2.1s6,1.38,9.06,1.22c3.64-.18,7-2,10.53-2.77,4.09-1,9.83-.26,10.12,4.85.33,5.62-2.33,10.21-6.05,14.17-2.21,2.35-4.21,5.31-3.94,8.53.21,2.5,1.74,4.66,2.94,6.86s2.07,4.93.93,7.17c-1,2-3.29,3-5.48,3.31-3.16.5-6.37,0-9.57,0-6.25-.07-10.43,3.11-14.58,7.37-2.6,2.69-7.17,8.4-11.55,6.41-2.77-1.25-3.66-5.14-3.89-7.84C96.19,405.38,96.33,401.48,94.88,397.37Z"/><path class="cls-4" d="M100.44,417.47s0-25.7,35.76-49.72"/><path class="cls-6" d="M100,418s-12-43.27-34.26-72.76c-.33-.44-2.17-2.54-2.5-3"/><path class="cls-7" d="M98.17,411s-20.48-7.71-22.85-4.74C70.31,412.58,96.82,411.72,98.17,411Z"/><path class="cls-7" d="M92.27,394.86s-20.06-8.6-22.59-5.77C64.32,395.09,90.88,395.47,92.27,394.86Z"/><path class="cls-7" d="M87.32,383.1s-19.17-8.82-21.7-6C60.26,383.1,85.93,383.71,87.32,383.1Z"/><path class="cls-7" d="M81.73,371.49s-19.33-8.81-21.86-6C54.51,371.51,80.34,372.1,81.73,371.49Z"/><path class="cls-7" d="M74,357.51s-18.37-10.3-21.16-7.72C47,355.24,72.57,358,74,357.51Z"/><path class="cls-7" d="M74.08,357.71s-2.25-20.93,1.22-22.49C82.63,331.92,75.09,356.57,74.08,357.71Z"/><path class="cls-7" d="M80.39,369.45S78.14,348.52,81.6,347C88.94,343.66,81.39,368.31,80.39,369.45Z"/><path class="cls-7" d="M87.27,383.84s-1-21,2.53-22.38C97.31,358.6,88.34,382.76,87.27,383.84Z"/><path class="cls-7" d="M92,395.26s1.76-21,5.46-21.85C105.25,371.56,93.16,394.33,92,395.26Z"/><path class="cls-7" d="M97.89,410.85s1.76-21,5.46-21.85C111.18,387.16,99.09,409.92,97.89,410.85Z"/><path class="cls-7" d="M64.72,343.89s-8.89-19.74-12.66-19.33C44.06,325.42,63.28,343.41,64.72,343.89Z"/><path class="cls-3" d="M409.63,408.55c1.36-3.22,3.6-6.08,4.42-9.48,1.19-5-.82-10.28.43-15.22.57-2.26,2.46-4.65,4.74-4.17,1.65.35,2.62,2,4,2.95,2.67,1.76,6.39.47,8.7-1.74s3.74-5.18,5.81-7.61A18.49,18.49,0,0,1,449.61,367a7.5,7.5,0,0,1,5.61,1.16,6,6,0,0,1,1.59,6.32,12.33,12.33,0,0,1-4,5.53,26.73,26.73,0,0,1-9.6,5.31,6,6,0,0,0-2.7,1.28,1.83,1.83,0,0,0,0,2.66c1,.71,2.35-.24,3.58-.2a2.81,2.81,0,0,1,2.34,1.71,5.52,5.52,0,0,1,.32,3,11.11,11.11,0,0,1-5.08,7.93c-.63.4-1.37.81-1.53,1.53a1.93,1.93,0,0,0,1,1.85c.61.41,1.33.63,1.94,1,2.09,1.38,2.29,4.61.93,6.71s-3.81,3.25-6.25,3.84c-6.55,1.57-13.27-.07-19.89.29-2.28.12-6.43,2.11-8,.34C407.8,415.1,408.63,410.94,409.63,408.55Z"/><path class="cls-4" d="M410.94,417.92s12-26.85,38.52-44.11"/><path class="cls-5" d="M399.11,414.75c-2.34-2.52-3.62-5.82-4.91-9-.84-2.09-1.69-4.77-3.25-6.46a40.24,40.24,0,0,0-4.71-3.87,43.5,43.5,0,0,0-12.84-7c-2.72-.92-5.85-1.83-7.14-4.39-1.19-2.36-.33-5.21.78-7.6s2.51-4.83,2.35-7.46a11.48,11.48,0,0,0-2.83-6.07c-2.47-3.17-6.91-7.37-3.54-11.5a5.71,5.71,0,0,1,6.17-1.74c2.18.76,3.64,2.76,5.23,4.43a23.77,23.77,0,0,0,11,6.59c5.54,1.52,12,1.19,16.28,5,4,3.53,4.66,9.36,5.21,14.64.48,4.68,1.21,10.48,5,13.72,3.66,3.09,5.7,8.38,5.74,13.26C417.75,417.92,406.38,422.6,399.11,414.75Z"/><path class="cls-4" d="M411.33,417.51s-1.26-25.56-35.39-51.95"/><path class="cls-8" d="M196,103.24a3.69,3.69,0,1,1-3.69-3.69A3.69,3.69,0,0,1,196,103.24Z"/><path class="cls-8" d="M214.45,103.24a3.7,3.7,0,1,1-3.69-3.69A3.69,3.69,0,0,1,214.45,103.24Z"/><path class="cls-8" d="M232.86,103.24a3.7,3.7,0,1,1-3.69-3.69A3.69,3.69,0,0,1,232.86,103.24Z"/><rect class="cls-8" x="188.66" y="276.41" width="70.7" height="56.57" rx="7"/><path class="cls-9" d="M91.66,156.68h-23a4,4,0,0,0-4,4v10a4,4,0,0,0,4,4h9L85,182.05v-7.37h6.63a4,4,0,0,0,4-4v-10A4,4,0,0,0,91.66,156.68Z"/><rect class="cls-9" x="497.78" y="364.95" width="8" height="8"/><rect class="cls-3" x="327.53" y="44.16" width="4" height="4"/><rect class="cls-3" x="685" y="187.23" width="5.94" height="5.94"/><rect class="cls-3" x="63.15" y="244.86" width="2.97" height="2.97"/><rect class="cls-3" x="98.55" y="128.31" width="4.04" height="4.04"/><rect class="cls-9" x="80.17" y="272.41" width="8" height="8" transform="translate(-107.44 60.15) rotate(-24.61)"/><circle class="cls-9" cx="660.47" cy="227.55" r="9.08"/><path class="cls-9" d="M277,47.18A5.18,5.18,0,1,1,271.77,42,5.18,5.18,0,0,1,277,47.18Z"/><rect class="cls-5" x="646.8" y="140.93" width="36.76" height="20.32" rx="4.18"/><polygon class="cls-2" points="668.61 151.09 661.75 147.13 661.75 155.05 668.61 151.09"/><g class="cls-10"><path class="cls-3" d="M232.86,354.45a1.85,1.85,0,1,1-1.84-1.84A1.84,1.84,0,0,1,232.86,354.45Z"/><path class="cls-3" d="M246.3,354.45a1.85,1.85,0,1,1-1.85-1.84A1.85,1.85,0,0,1,246.3,354.45Z"/><circle class="cls-3" cx="257.89" cy="354.45" r="1.85"/><circle class="cls-3" cx="271.33" cy="354.45" r="1.85"/><path class="cls-3" d="M286.61,354.45a1.85,1.85,0,1,1-1.85-1.84A1.85,1.85,0,0,1,286.61,354.45Z"/><path class="cls-3" d="M232.86,367.89A1.85,1.85,0,1,1,231,366,1.84,1.84,0,0,1,232.86,367.89Z"/><path class="cls-3" d="M246.3,367.89a1.85,1.85,0,1,1-1.85-1.85A1.85,1.85,0,0,1,246.3,367.89Z"/><circle class="cls-3" cx="257.89" cy="367.89" r="1.85"/><circle class="cls-3" cx="271.33" cy="367.89" r="1.85"/><path class="cls-3" d="M286.61,367.89a1.85,1.85,0,1,1-1.85-1.85A1.85,1.85,0,0,1,286.61,367.89Z"/><path class="cls-3" d="M232.86,381.33a1.85,1.85,0,1,1-1.84-1.85A1.84,1.84,0,0,1,232.86,381.33Z"/><path class="cls-3" d="M246.3,381.33a1.85,1.85,0,1,1-1.85-1.85A1.84,1.84,0,0,1,246.3,381.33Z"/><circle class="cls-3" cx="257.89" cy="381.33" r="1.85"/><circle class="cls-3" cx="271.33" cy="381.33" r="1.85"/><path class="cls-3" d="M286.61,381.33a1.85,1.85,0,1,1-1.85-1.85A1.84,1.84,0,0,1,286.61,381.33Z"/><path class="cls-3" d="M232.86,394.76a1.85,1.85,0,1,1-1.84-1.84A1.84,1.84,0,0,1,232.86,394.76Z"/><path class="cls-3" d="M246.3,394.76a1.85,1.85,0,1,1-1.85-1.84A1.85,1.85,0,0,1,246.3,394.76Z"/><circle class="cls-3" cx="257.89" cy="394.76" r="1.85"/><circle class="cls-3" cx="271.33" cy="394.76" r="1.85"/><path class="cls-3" d="M286.61,394.76a1.85,1.85,0,1,1-1.85-1.84A1.85,1.85,0,0,1,286.61,394.76Z"/><circle class="cls-3" cx="95.66" cy="42.31" r="1.85"/><path class="cls-3" d="M95.66,57.59a1.85,1.85,0,1,1,1.84-1.84A1.84,1.84,0,0,1,95.66,57.59Z"/><circle class="cls-3" cx="95.66" cy="69.18" r="1.85"/><circle class="cls-3" cx="95.66" cy="82.62" r="1.85"/><circle class="cls-3" cx="95.66" cy="96.06" r="1.85"/><path class="cls-3" d="M82.22,44.16a1.85,1.85,0,1,1,1.85-1.85A1.84,1.84,0,0,1,82.22,44.16Z"/><path class="cls-3" d="M82.22,57.59a1.85,1.85,0,1,1,1.85-1.84A1.84,1.84,0,0,1,82.22,57.59Z"/><path class="cls-3" d="M82.22,71a1.85,1.85,0,1,1,1.85-1.85A1.84,1.84,0,0,1,82.22,71Z"/><path class="cls-3" d="M82.22,84.47a1.85,1.85,0,1,1,1.85-1.85A1.84,1.84,0,0,1,82.22,84.47Z"/><path class="cls-3" d="M82.22,97.9a1.85,1.85,0,1,1,1.85-1.84A1.84,1.84,0,0,1,82.22,97.9Z"/><circle class="cls-3" cx="68.78" cy="42.31" r="1.85"/><path class="cls-3" d="M68.78,57.59a1.85,1.85,0,1,1,1.85-1.84A1.84,1.84,0,0,1,68.78,57.59Z"/><circle class="cls-3" cx="68.78" cy="69.18" r="1.85"/><circle class="cls-3" cx="68.78" cy="82.62" r="1.85"/><circle class="cls-3" cx="68.78" cy="96.06" r="1.85"/><path class="cls-3" d="M55.35,44.16a1.85,1.85,0,1,1,1.84-1.85A1.85,1.85,0,0,1,55.35,44.16Z"/><path class="cls-3" d="M55.35,57.59a1.85,1.85,0,1,1,1.84-1.84A1.84,1.84,0,0,1,55.35,57.59Z"/><path class="cls-3" d="M55.35,71a1.85,1.85,0,1,1,1.84-1.85A1.85,1.85,0,0,1,55.35,71Z"/><path class="cls-3" d="M55.35,84.47a1.85,1.85,0,1,1,1.84-1.85A1.85,1.85,0,0,1,55.35,84.47Z"/><path class="cls-3" d="M55.35,97.9a1.85,1.85,0,1,1,1.84-1.84A1.84,1.84,0,0,1,55.35,97.9Z"/><circle class="cls-3" cx="693.54" cy="268.45" r="1.85"/><path class="cls-3" d="M693.54,283.73a1.85,1.85,0,1,1,1.85-1.85A1.84,1.84,0,0,1,693.54,283.73Z"/><circle class="cls-3" cx="693.54" cy="295.32" r="1.85"/><circle class="cls-3" cx="693.54" cy="308.75" r="1.85"/><circle class="cls-3" cx="693.54" cy="322.19" r="1.85"/><path class="cls-3" d="M680.11,270.29a1.85,1.85,0,1,1,1.84-1.84A1.85,1.85,0,0,1,680.11,270.29Z"/><path class="cls-3" d="M680.11,283.73a1.85,1.85,0,1,1,1.84-1.85A1.85,1.85,0,0,1,680.11,283.73Z"/><path class="cls-3" d="M680.11,297.16a1.85,1.85,0,1,1,1.84-1.84A1.84,1.84,0,0,1,680.11,297.16Z"/><path class="cls-3" d="M680.11,310.6a1.85,1.85,0,1,1,1.84-1.85A1.85,1.85,0,0,1,680.11,310.6Z"/><path class="cls-3" d="M680.11,324a1.85,1.85,0,1,1,1.84-1.85A1.85,1.85,0,0,1,680.11,324Z"/><circle class="cls-3" cx="666.67" cy="268.45" r="1.85"/><path class="cls-3" d="M666.67,283.73a1.85,1.85,0,1,1,1.85-1.85A1.85,1.85,0,0,1,666.67,283.73Z"/><circle class="cls-3" cx="666.67" cy="295.32" r="1.85"/><circle class="cls-3" cx="666.67" cy="308.75" r="1.85"/><circle class="cls-3" cx="666.67" cy="322.19" r="1.85"/><circle class="cls-3" cx="653.23" cy="268.45" r="1.85"/><path class="cls-3" d="M653.23,283.73a1.85,1.85,0,1,1,1.85-1.85A1.84,1.84,0,0,1,653.23,283.73Z"/><circle class="cls-3" cx="653.23" cy="295.32" r="1.85"/><circle class="cls-3" cx="653.23" cy="308.75" r="1.85"/><circle class="cls-3" cx="653.23" cy="322.19" r="1.85"/></g><rect class="cls-9" x="153.99" y="81.37" width="406.02" height="254.81" rx="14.29"/><rect class="cls-3" x="171.99" y="63.77" width="406.02" height="254.81" rx="14.29"/><path class="cls-8" d="M423,90.14V223.21a7,7,0,0,1-7,7H195.66a7,7,0,0,1-7-7V90.14a7,7,0,0,1,7-7H416A7,7,0,0,1,423,90.14Z"/><path class="cls-11" d="M382.77,207a88.61,88.61,0,0,1-3.06,23.18H208.05A88.9,88.9,0,1,1,382.77,207Z"/><path class="cls-12" d="M293.48,148.85s-24.69,3-31.09,4.33-8.66,9-8.29,23,0,54.05,0,54.05h78.2s.37-74-.76-74.56C325.1,152.45,302.15,150.17,293.48,148.85Z"/><polygon class="cls-13" points="254.06 202.26 264.93 182.83 259.49 230.21 254.06 230.21 254.06 202.26"/><path class="cls-14" d="M261.12,153.55s-8.52,1.51-14.55,11.31S221,213.26,221,213.26s1,11.68,15.07,7.35,31.27-42.76,31.27-42.76S275.24,154.85,261.12,153.55Z"/><path class="cls-15" d="M296,160.15h0a9.41,9.41,0,0,1-9.41-9.41V137.55h18.81v13.19A9.4,9.4,0,0,1,296,160.15Z"/><path class="cls-15" d="M274.44,214.77s12.76,1.17,16.44.75,11,1.7,12,9h-26Z"/><path class="cls-14" d="M221,213.26s-6.21,17,9.42,17h49.94l3.37-18s-14.62-.82-29.47-1.43C238.83,210.15,224.07,207.52,221,213.26Z"/><path class="cls-14" d="M328.36,154.48s6.78.58,12.8,10.38,25.62,48.4,25.62,48.4-.94,11.68-15.07,7.35-31.26-42.76-31.26-42.76S314.23,155.77,328.36,154.48Z"/><path class="cls-14" d="M367.11,213.26s6.21,17-9.42,17H307.75l-3.37-18s14.62-.82,29.47-1.43C349.23,210.15,364,207.52,367.11,213.26Z"/><path class="cls-16" d="M286.55,142s3.7,7,18.81,5V138.4Z"/><path class="cls-17" d="M283.77,99.41s-4.25.77-6,6.76c-1.39,4.62,2.85,17,2.85,17S281.8,101.39,283.77,99.41Z"/><path class="cls-17" d="M308.12,99.41s4.22,1,6.1,7.67c1.32,4.65-2.9,16.07-2.9,16.07S310.09,101.39,308.12,99.41Z"/><path class="cls-18" d="M281,121a3.46,3.46,0,0,0-4.71.71c-2,2.54,1.55,8.61,5.62,7.34Z"/><path class="cls-18" d="M310.88,121a3.46,3.46,0,0,1,4.71.71c2,2.54-1.55,8.61-5.62,7.34Z"/><path class="cls-18" d="M305.36,102c-6.59-3-9.41-3-9.41-3s-2.83,0-9.42,3c-5.58,2.55-6.59,13.94-5.46,28.63S296,145.46,296,145.46s13.74-.19,14.87-14.88S310.94,104.5,305.36,102Z"/><path class="cls-17" d="M282.06,100s1.27,5.39,8.79,4.26,10.45,10.48,21.12,5.21c3.06-1.52,3.67-3,4.2-5.3,1.3-5.7-3.15-12.91-10.12-12.61C296.28,92,284.64,90.25,282.06,100Z"/><path class="cls-17" d="M286.22,102.52s2.27,3.37-2,7.46c-3.25,3.14-2.76,13.17-2.76,13.17s-.33-.76-.83-2.33-3.05-13.57-.44-17S284.81,99.27,286.22,102.52Z"/><path class="cls-17" d="M305.9,102.52s-2.26,3.37,2,7.46c3.25,3.14,2.77,13.17,2.77,13.17s.32-.76.83-2.33,3-13.57.44-17S307.32,99.27,305.9,102.52Z"/><path class="cls-19" d="M311.89,125.59s.63-3.3,2.7-3.11"/><path class="cls-19" d="M278.15,122.47a5.17,5.17,0,0,1,2.51,3.59"/><path class="cls-8" d="M286.55,148.85s-.07,8.17,6.83,10.94c0,0-1.75,5.21-5.2,5.21s-6.11-12.57-4.72-14.89Z"/><path class="cls-8" d="M305.36,148.85s.08,8.17-6.82,10.94c0,0,1.75,5.21,5.19,5.21s6.39-11.8,5-14.11Z"/><path class="cls-20" d="M360.27,230.21H275.7a3.66,3.66,0,0,1-3.66-3.66v-2h91.9v2A3.66,3.66,0,0,1,360.27,230.21Z"/><path class="cls-21" d="M368.84,184.73H312.21a3.37,3.37,0,0,0-3.29,2.62L300,226.08a3.37,3.37,0,0,0,3.29,4.13h56.63a3.39,3.39,0,0,0,3.3-2.62l8.9-38.73A3.39,3.39,0,0,0,368.84,184.73Z"/><path class="cls-22" d="M337.3,202.61l-3.69,5a.73.73,0,0,0,.59,1.17H340a.73.73,0,0,0,.68-1l-2.07-5A.73.73,0,0,0,337.3,202.61Z"/><rect class="cls-8" x="434.86" y="83.14" width="130.47" height="216.07" rx="7"/><path class="cls-22" d="M529.25,125l-27.47,7.26V103.64A34.25,34.25,0,0,1,529.25,125Z"/><path class="cls-22" d="M531.67,137.61a34.25,34.25,0,1,1-34.25-34.25v34.25l33.12-8.74A34.05,34.05,0,0,1,531.67,137.61Z"/><path class="cls-22" d="M537,122.91l-7.78,2-27.47,7.26V95.59A42.25,42.25,0,0,1,537,122.91Z"/><path class="cls-23" d="M537,122.91l-7.78,2-27.47,7.26V95.59A42.25,42.25,0,0,1,537,122.91Z"/><path class="cls-22" d="M544.93,218.23H455.27a2,2,0,0,1-2-2h0a2,2,0,0,1,2-2h89.66a2,2,0,0,1,2,2h0A2,2,0,0,1,544.93,218.23Z"/><path class="cls-22" d="M505.28,193.26H469.77a2,2,0,0,1-2-2h0a2,2,0,0,1,2-2h35.51a2,2,0,0,1,2,2h0A2,2,0,0,1,505.28,193.26Z"/><path class="cls-22" d="M544.93,231.55H455.27a2,2,0,0,1-2-2h0a2,2,0,0,1,2-2h89.66a2,2,0,0,1,2,2h0A2,2,0,0,1,544.93,231.55Z"/><path class="cls-22" d="M544.93,244.86H455.27a2,2,0,0,1-2-2h0a2,2,0,0,1,2-2h89.66a2,2,0,0,1,2,2h0A2,2,0,0,1,544.93,244.86Z"/><path class="cls-22" d="M544.93,258.17H455.27a2,2,0,0,1-2-2h0a2,2,0,0,1,2-2h89.66a2,2,0,0,1,2,2h0A2,2,0,0,1,544.93,258.17Z"/><path class="cls-22" d="M544.93,271.48H455.27a2,2,0,0,1-2-2h0a2,2,0,0,1,2-2h89.66a2,2,0,0,1,2,2h0A2,2,0,0,1,544.93,271.48Z"/><rect class="cls-22" x="453.27" y="187.55" width="7.44" height="7.44" rx="1.79"/><path class="cls-22" d="M505.28,207H469.77a2,2,0,0,1-2-2h0a2,2,0,0,1,2-2h35.51a2,2,0,0,1,2,2h0A2,2,0,0,1,505.28,207Z"/><rect class="cls-22" x="453.27" y="201.31" width="7.44" height="7.44" rx="1.79"/><path class="cls-8" d="M349.12,255H194.42a5.76,5.76,0,0,1-5.76-5.76h0a5.76,5.76,0,0,1,5.76-5.76h154.7a5.77,5.77,0,0,1,5.77,5.76h0A5.77,5.77,0,0,1,349.12,255Z"/><path class="cls-8" d="M419.82,255H371.54a5.76,5.76,0,0,1-5.76-5.76h0a5.76,5.76,0,0,1,5.76-5.76h48.28a5.76,5.76,0,0,1,5.77,5.76h0A5.76,5.76,0,0,1,419.82,255Z"/><path class="cls-8" d="M236,273.21H192a2,2,0,0,1-2-2h0a2,2,0,0,1,2-2h44a2,2,0,0,1,2,2h0A2,2,0,0,1,236,273.21Z"/><path class="cls-8" d="M273.36,292H192a2,2,0,0,1-2-2h0a2,2,0,0,1,2-2h81.33a2,2,0,0,1,2,2h0A2,2,0,0,1,273.36,292Z"/><path class="cls-8" d="M307.53,292H281.7a2,2,0,0,1-2-2h0a2,2,0,0,1,2-2h25.83a2,2,0,0,1,2,2h0A2,2,0,0,1,307.53,292Z"/><path class="cls-8" d="M344,273.21H245.16a2,2,0,0,1-2-2h0a2,2,0,0,1,2-2H344a2,2,0,0,1,2,2h0A2,2,0,0,1,344,273.21Z"/><line class="cls-24" x1="201.31" y1="218.23" x2="410.35" y2="218.23"/><line class="cls-25" x1="201.31" y1="218.23" x2="314.48" y2="218.23"/><path class="cls-26" d="M212.55,223.91l-2-1.15a.39.39,0,0,0-.59.34v2.3a.4.4,0,0,0,.59.35l2-1.15A.4.4,0,0,0,212.55,223.91Z"/><path class="cls-26" d="M220.66,223.88l-2-1.15a.39.39,0,0,0-.6.34v2.3a.4.4,0,0,0,.6.35l2-1.15A.4.4,0,0,0,220.66,223.88Z"/><line class="cls-27" x1="221.4" y1="222.82" x2="221.4" y2="225.62"/><path class="cls-26" d="M202,223.88l2-1.15a.39.39,0,0,1,.59.34v2.3a.4.4,0,0,1-.59.35l-2-1.15A.4.4,0,0,1,202,223.88Z"/><line class="cls-27" x1="201.31" y1="222.82" x2="201.31" y2="225.62"/><polyline class="cls-28" points="407.08 223.51 407.08 222.6 407.98 222.6"/><polyline class="cls-28" points="407.98 225.88 407.08 225.88 407.08 224.97"/><polyline class="cls-28" points="409.45 222.6 410.35 222.6 410.35 223.51"/><polyline class="cls-28" points="410.35 224.97 410.35 225.88 409.45 225.88"/><path class="cls-14" d="M329.78,57.82h77.09a6.59,6.59,0,0,1,6.59,6.58V89.74a6.59,6.59,0,0,1-6.59,6.58H352.82l-12.14,12.14V96.32h-10.9a6.58,6.58,0,0,1-6.58-6.58V64.4A6.58,6.58,0,0,1,329.78,57.82Z"/><line class="cls-9" x1="331.53" y1="66.34" x2="362.5" y2="66.34"/><line class="cls-9" x1="369.11" y1="66.34" x2="381.02" y2="66.34"/><line class="cls-9" x1="386.94" y1="66.34" x2="405.12" y2="66.34"/><line class="cls-9" x1="331.53" y1="77.07" x2="343.02" y2="77.07"/><line class="cls-9" x1="349.13" y1="77.07" x2="372.92" y2="77.07"/><line class="cls-9" x1="378.82" y1="77.07" x2="405.12" y2="77.07"/><line class="cls-9" x1="331.53" y1="87.8" x2="352.9" y2="87.8"/><line class="cls-9" x1="358.25" y1="87.8" x2="369.11" y2="87.8"/><path class="cls-17" d="M575.08,140s3.62-8.95,16.64-9.6c9.35-.47,17.86,5,18.52,16,.69,11.66-2.72,10.75,6.84,14.19s-3.54,16.54,5.91,18.16,10,15.57-2,19.44-50.83,1.81-52.54-6.14,9.8-18.5,6.77-25S568.74,145.05,575.08,140Z"/><path class="cls-18" d="M563.66,216.62l-3.92,11S546.63,202.31,546,200.05s.08-13,0-14.17a2.42,2.42,0,0,0-2.56,2.34,13.18,13.18,0,0,0,0,3.54s-4.6-2.56-6.63-3.62a68,68,0,0,0-11.38-3.91s-1.73.67,1,2.71,8.44,12,10.55,12.81,13.86,37.52,17.86,43,11.9,4.67,15.29-3.84,6-20.65,6-20.65Z"/><path class="cls-29" d="M572.15,185.48a169.46,169.46,0,0,0-12.87,36.27s1.26,6.87,16.73,7C576,228.78,588.29,193.83,572.15,185.48Z"/><polygon class="cls-15" points="578.79 386.3 576.69 411.88 587.6 411.88 592.31 384.7 578.79 386.3"/><path class="cls-26" d="M588.79,406.53s4.74,8.61,1.18,10-27,.53-32.73-.34,12.88-8.78,17.15-10S580,411.39,588.79,406.53Z"/><polygon class="cls-15" points="636.16 386.3 638.26 411.88 627.35 411.88 621.69 386.3 636.16 386.3"/><path class="cls-26" d="M626.17,406.82s-2.77,6.74.79,8.1,14.9,2.75,20.66,1.79c7.49-1.25-4.55-9-8.81-10.28S628.73,410.24,626.17,406.82Z"/><path class="cls-30" d="M576,246.4l-5,153.4h23l5-102.18,19.74,105.11,25.08-4.18s-22.65-114.66-26.5-152.15Z"/><path class="cls-26" d="M593.88,175.36s-10.32,2.26-16.12,5.64-7.41,5.48-7.9,13.06-3.64,19.66,1.2,23.36,5.62,13.06,4.49,20.47-2.1,11.94-.91,15.74c1.48,4.69,11.12,5.56,26,4.94,15.36-.64,22.61-2.2,18.26-13.64s5.92-55.06,4-58.13S606.45,174.88,593.88,175.36Z"/><path class="cls-18" d="M587,157.37h13.22a0,0,0,0,1,0,0v20.69a6.16,6.16,0,0,1-6.16,6.16h-.89a6.16,6.16,0,0,1-6.16-6.16V157.37A0,0,0,0,1,587,157.37Z"/><path class="cls-16" d="M587,175.62s5.34,1.16,13.21-3.12v-8.17L587,173.06S587,174.71,587,175.62Z"/><path class="cls-18" d="M577.48,144.27S575,175,586.84,175c12.94,0,14.91-11.88,14.91-11.88s4.33-2.44,3.35-5.2c-.69-2-2.8-.81-2.8-.81S608,138.89,577.48,144.27Z"/><path class="cls-17" d="M576.9,142.2s2.17,12.48,12.46,10.53,7.84,5.65,12.66,4.4c0,0,11.85-7.66,2.91-15.36S582.39,136,576.9,142.2Z"/><path class="cls-18" d="M583.72,178.32s2.44,7.52,7.1,8.91c0,0,7.35-.71,13.21-10.56,0,0-6.62-1.83-11.13-1.33C592.9,175.34,587.33,176.85,583.72,178.32Z"/><path class="cls-29" d="M616.93,199.16s-4.9,19.84.85,37.34L620,194.25Z"/><path class="cls-31" d="M600.1,231.16H589.87a2.49,2.49,0,0,1-2.4-1.83l-5.7-20.46a2.5,2.5,0,0,1,2.41-3.17H594.4a2.51,2.51,0,0,1,2.41,1.83l5.7,20.47A2.5,2.5,0,0,1,600.1,231.16Z"/><path class="cls-30" d="M598.78,231.16H588.56a2.51,2.51,0,0,1-2.41-1.83l-5.69-20.46a2.49,2.49,0,0,1,2.4-3.17h10.23a2.49,2.49,0,0,1,2.4,1.83l5.7,20.47A2.49,2.49,0,0,1,598.78,231.16Z"/><path class="cls-31" d="M594.41,213.08h-1.73a.43.43,0,0,1-.42-.31L591,208.08a.44.44,0,0,1,.42-.55h1.73a.43.43,0,0,1,.42.32l1.29,4.69A.44.44,0,0,1,594.41,213.08Z"/><path class="cls-18" d="M618.13,207.16s5.12,32.22,6.83,38.3c1.11,3.93,9.18,6.61,11.71,1.41.56-1.15.43-3.05.37-5-.39-12-7-37.63-7-37.63Z"/><path class="cls-18" d="M627.8,235.69s-17.12-6.86-19.71-10.94c-3.51-5.56-5.33-4.85-7.88-7.05-4.1-3.53-4.06-2.32-4.06-2.32s-1.16,2.81,2.29,5c1.73,1.1,3.46,2,2.65,2.12,0,0-14.74-4.17-17.8-5.39s-1.78,2.36.19,4c0,0,.25,3,2.66,3.62,0,0-1.48,1,4.11,3.87s12.56.68,14.74,3.4,12.48,13.52,22.89,17.06c5,1.69,7.19,0,8.38-2.33C638.31,242.67,634.28,239.49,627.8,235.69Z"/><path class="cls-26" d="M622.88,186.8s-10.91,9.51-5.43,36.75a16.28,16.28,0,0,0,17.25-3.71S633.36,198.08,622.88,186.8Z"/><polygon class="cls-32" points="599.07 297.62 592.9 274.5 598.05 318.58 599.07 297.62"/><path class="cls-19" d="M601.77,160.4s0-2.42,2.26-1.61"/><path class="cls-33" d="M569.38,396.2l.34,3.28a1.51,1.51,0,0,0,1.5,1.35h22.59a1.5,1.5,0,0,0,1.51-1.37l.24-2.78a1.51,1.51,0,0,0-1.47-1.64l-23.18-.5A1.5,1.5,0,0,0,569.38,396.2Z"/><path class="cls-33" d="M617,398.49l.82,4a1.06,1.06,0,0,0,1.22.83l24.56-4.07a1.06,1.06,0,0,0,.88-1.19l-.56-4.35a1.05,1.05,0,0,0-1.24-.91l-24.82,4.42A1.06,1.06,0,0,0,617,398.49Z"/><path class="cls-18" d="M182.43,196.79s6,15.36,6.77,15.9,15.91-16.3,18.65-21.13c.57-5.08,4.16-9.06,5.2-14.55.5-2.64,1.67-1.49,1.88.66a11.29,11.29,0,0,1-.54,4.3s7.31-1.72,11.07-1.83a21.37,21.37,0,0,1,7.2,1.18s3.44,1,3.54,1.51-1.18,1.61-5.26,1.5-4.19,1.12-6.81,1.72c-2.84.65-6.37,3.25-8.65,6.72-2.76,4.2-8.11,16.92-13.64,25.3s-13.58,17.46-19.53,9.42a118.84,118.84,0,0,1-12.88-22.83Z"/><path class="cls-34" d="M174.38,175.11s7.46,11.26,10.47,24.37c0,0-4.28,7.18-16,9.28C168.85,208.76,161.34,186,174.38,175.11Z"/><path class="cls-35" d="M193.23,200.5"/><polygon class="cls-15" points="179.06 386.55 179.19 413.68 167.63 413.68 163.72 386.55 179.06 386.55"/><path class="cls-36" d="M166.37,408s-5,8.11-1.25,9.55,28.58,1.58,34.7.66-13.67-9.31-18.19-10.62S175.65,413.15,166.37,408Z"/><polygon class="cls-15" points="105.65 386.55 102.92 413.68 114.48 413.68 120.99 386.55 105.65 386.55"/><path class="cls-36" d="M115.74,408s5,8.11,1.25,9.55-28.58,1.58-34.7.66S96,408.9,100.48,407.59,106.47,413.15,115.74,408Z"/><polygon class="cls-37" points="115.93 256.74 101.05 400.11 121.25 402.48 145.75 293.38 161.53 402.48 183.3 399.35 168.25 256.74 115.93 256.74"/><path class="cls-38" d="M158.5,397.39l.93,4.74a1.49,1.49,0,0,0,1.65,1.19l22.58-3a1.49,1.49,0,0,0,1.28-1.57l-.31-4.56A1.47,1.47,0,0,0,183,392.8l-23.2,2.84A1.48,1.48,0,0,0,158.5,397.39Z"/><path class="cls-38" d="M125.16,398.14l-.92,4.74a1.49,1.49,0,0,1-1.65,1.19l-22.58-3a1.48,1.48,0,0,1-1.28-1.57l.3-4.56a1.48,1.48,0,0,1,1.66-1.37l23.2,2.84A1.47,1.47,0,0,1,125.16,398.14Z"/><polygon class="cls-39" points="145.75 293.38 151.17 273.21 149.23 317.43 145.75 293.38"/><path class="cls-17" d="M143.33,117.87c4.62-.94,9.17,2,13.88,2.09,1.86,0,3.69-.43,5.55-.49a6.63,6.63,0,0,1,5.15,1.72c1.5,1.6,1.68,4.1,1.42,6.33a21.38,21.38,0,0,1-7.88,14.19c-1.83,1.43-4.07,2.57-6.35,2.29a11.55,11.55,0,0,1-5-2.36c-4.85-3.33-10.07-6.91-13.13-12.22C134.32,124.76,138.71,118.81,143.33,117.87Z"/><path class="cls-18" d="M111.37,194.72,96.69,217.67s-29.36-1.87-32.93-1.86-9-2.42-9-1.53,1.24,3.18,4.6,3.89a95.91,95.91,0,0,0-8.1,5.54c-1.84,1.65-3.59,6.54-3.66,8.62s8.17-2.2,11.63-4.57,5.1-5.49,8.47-4.34,31.71,9.64,34.8,7.41,20.24-26.69,20.24-26.69S115.08,196.29,111.37,194.72Z"/><path class="cls-36" d="M118.24,173.27s10.66-9.08,28.54-8.38,28.62,7.73,27.76,11.81-8.81,40.83-7.09,57.8,8.19,24.16-3.43,24.81-46.69,1.09-48.3-1.17,4.67-34.92,4.67-46.84S114.48,180.68,118.24,173.27Z"/><path class="cls-17" d="M141.08,156.74s-18.23-16.66-10.33-28.91,16.2.55,16.2.55S150.47,149.39,141.08,156.74Z"/><path class="cls-15" d="M156.77,144.7l-.84,16.24-.24,4.64a7.42,7.42,0,0,1-14.82-.57l.21-8.27.35-13.74Z"/><path class="cls-16" d="M156.77,147.94l-.84,15.3c-7.19.29-12.45-2.63-14.85-6.53l.35-10.47Z"/><path class="cls-18" d="M162.48,135.36a54.87,54.87,0,0,1-.21,11.15c-.86,6.77-.55,14.73-10.54,15.26-10.65.57-14.18-11.35-14.18-11.35s-5.66-1.06-6.05-4.88,3.57-4,4.86-3c0,0,1.47-14.26,14.64-14.26C162.64,128.31,162.48,135.36,162.48,135.36Z"/><path class="cls-17" d="M137.09,143.64s8.26-3.64,6.17-13c0,0-5.48-8.43-10.16-5.35S137.09,143.64,137.09,143.64Z"/><path class="cls-36" d="M101.39,206.14s6.65,7.09,14.5,10.31c0,0,6.76-9.45,8.69-15.9s-2.1-25.78-4.67-27.93S105.58,196.47,101.39,206.14Z"/><path class="cls-17" d="M149.81,131.77c2.41.55,4.47,2.32,6.68,3.58s4.95,2,7,.47c1.9-1.39,2.69-4.39,2.16-6.95a9.73,9.73,0,0,0-4.11-6,16.81,16.81,0,0,0-6.34-2.38,21.14,21.14,0,0,0-8.71-.19c-2.55.58-9.76,4.11-8.28,8.57.56,1.69,2.9,2.18,4.2,2.47C144.88,131.92,147.38,131.21,149.81,131.77Z"/><line class="cls-40" x1="63.77" y1="417.61" x2="686.23" y2="417.61"/></g></svg>