<svg xmlns="http://www.w3.org/2000/svg" xmlns:xlink="http://www.w3.org/1999/xlink" viewBox="0 0 750 500"><defs><style>.cls-1{isolation:isolate;}.cls-2,.cls-6{fill:#fff;}.cls-3{fill:#abdaf7;}.cls-28,.cls-4{fill:#70b2dd;}.cls-5,.cls-7{fill:#4e8fb7;}.cls-6{stroke:#0c48ed;stroke-miterlimit:10;stroke-width:1.38px;}.cls-7{opacity:0.35;mix-blend-mode:multiply;}.cls-8{fill:#cde9f7;}.cls-9{fill:#cee8f4;}.cls-10{fill:#a7d0db;}.cls-11{fill:#336a89;}.cls-12{fill:#f49d8c;}.cls-13{fill:url(#linear-gradient);}.cls-14{fill:#3150bc;}.cls-15{fill:#7897f9;}.cls-16,.cls-22{fill:#1b3151;}.cls-17{fill:url(#linear-gradient-2);}.cls-18{fill:#feb19e;}.cls-19{fill:#ff856a;}.cls-20{fill:url(#linear-gradient-3);}.cls-21{fill:#23406d;}.cls-22{opacity:0.49;}.cls-23{fill:url(#linear-gradient-4);}.cls-24{fill:#f6613a;}.cls-24,.cls-28{opacity:0.5;}.cls-25{fill:url(#linear-gradient-5);}.cls-26{fill:#2256b2;}.cls-27{fill:#3471ea;}</style><linearGradient id="linear-gradient" x1="249.95" y1="293.85" x2="307.54" y2="227.86" gradientUnits="userSpaceOnUse"><stop offset="0" stop-color="#3855e1"/><stop offset="1" stop-color="#5c7ef7"/></linearGradient><linearGradient id="linear-gradient-2" x1="262.07" y1="201.37" x2="302.62" y2="201.37" gradientUnits="userSpaceOnUse"><stop offset="0" stop-color="#3f2323"/><stop offset="1" stop-color="#5e3434"/></linearGradient><linearGradient id="linear-gradient-3" x1="236.09" y1="281.77" x2="293.69" y2="215.77" xlink:href="#linear-gradient"/><linearGradient id="linear-gradient-4" x1="484.9" y1="283.33" x2="460.92" y2="239.06" gradientUnits="userSpaceOnUse"><stop offset="0" stop-color="#f79239"/><stop offset="1" stop-color="#f7c759"/></linearGradient><linearGradient id="linear-gradient-5" x1="466.5" y1="224.22" x2="449.6" y2="192.86" xlink:href="#linear-gradient-2"/></defs><title>solution</title><g class="cls-1"><g id="BACKGROUND"><rect class="cls-2" width="750" height="500"/></g><g id="OBJECTS"><path class="cls-3" d="M629.06,404.86C629.06,426.48,515.31,444,375,444s-254-17.52-254-39.14c0-5.87,8.38-11.44,23.41-16.43,17.23-5.73,43.19-10.71,75.24-14.54,43-5.13,96.87-8.18,155.4-8.18,68,0,129.78,4.12,175.38,10.83,23.91,3.51,43.36,7.73,57,12.45C621.3,393.84,629.06,399.21,629.06,404.86Z"/><ellipse class="cls-4" cx="375" cy="399.94" rx="186.01" ry="28.66"/><ellipse class="cls-5" cx="375" cy="396.25" rx="124.76" ry="19.22"/><rect class="cls-4" x="151.54" y="267.1" width="63.25" height="119.78"/><rect class="cls-5" x="157.67" y="276.93" width="24.11" height="92.98"/><rect class="cls-5" x="184.55" y="276.93" width="24.11" height="92.98"/><rect class="cls-3" x="176.27" y="314.97" width="2.66" height="24.8"/><rect class="cls-3" x="187.22" y="314.97" width="2.66" height="24.8"/><rect class="cls-5" x="185.67" y="216.13" width="3.36" height="28.48"/><path class="cls-6" d="M211.38,200.09"/><polygon class="cls-4" points="169.28 217.5 176.03 190.25 197.87 190.25 205.42 217.5 169.28 217.5"/><path class="cls-3" d="M178.87,235.9h17A9.14,9.14,0,0,1,205,245v8.25a13.8,13.8,0,0,1-13.8,13.8h-7.63a13.8,13.8,0,0,1-13.8-13.8V245a9.14,9.14,0,0,1,9.14-9.14Z"/><path class="cls-6" d="M333.12,204"/><path class="cls-7" d="M224.29,397.33H140.1l8.5-10.45c17.23-5.73,35.53-8.54,67.58-12.37Z"/><path class="cls-6" d="M437.86,296.73"/><path class="cls-6" d="M437.86,296.73"/><path class="cls-7" d="M607.32,389c-2.71,6.3-17.3,11.11-34.92,11.11-19.55,0-35.39-5.92-35.39-13.22,0-4.2,5.22-7.92,13.36-10.34C574.28,380.05,593.73,384.27,607.32,389Z"/><path class="cls-4" d="M573.85,287.58s-4.47-19,5.94-33.54.73-21.81,16.37-29.36,19.77-19,19.77-19,5.44,27.3-4.37,36.37-14.48,9.12-12.7,24.18S573.85,287.58,573.85,287.58Z"/><path class="cls-3" d="M567.8,335.67a.59.59,0,0,1-.55-.55c-1.14-23-1.77-35.71,10-56.51C588.78,258.38,594.9,249.08,595,249a.58.58,0,0,1,.8-.16.59.59,0,0,1,.17.81c-.06.09-6.17,9.36-17.63,29.55-11.65,20.51-11,33.07-9.89,55.88a.58.58,0,0,1-.55.61Z"/><path class="cls-5" d="M555.56,321s-13.32-1-18.85-11.3-11.53-8.35-13.64-16.5-7.91-15.35-7.91-15.35S531,277,536.14,289,557.09,290.33,555.56,321Z"/><path class="cls-4" d="M558.69,334.51a.58.58,0,0,1-.61-.39c-9.23-26.89-20.06-35.29-20.17-35.37a.59.59,0,0,1-.12-.82.6.6,0,0,1,.82-.11c.45.34,11.2,8.64,20.57,35.93a.56.56,0,0,1-.36.73A.28.28,0,0,1,558.69,334.51Z"/><path class="cls-5" d="M569.2,295.89a23.06,23.06,0,0,1-15.67-16.61c-3.68-13.77-16.81-9.9-15.95-25s3.56-20.85,1.24-33.74,4.84-17.73,4.84-17.73.06,14.32,12.22,23.41,9.65,16.25,11,24.67,9.29,8,9.68,19.82S569.2,295.89,569.2,295.89Z"/><path class="cls-4" d="M571.72,334.2h0a.58.58,0,0,1-.56-.6c1.52-40.82-16.62-88.11-16.8-88.58a.58.58,0,0,1,.33-.75.57.57,0,0,1,.75.33c.19.47,18.41,48,16.88,89A.58.58,0,0,1,571.72,334.2Z"/><path class="cls-4" d="M554.88,302.84s-2.89,0-7.11-5.14c-2.28-2.74-3.91-8.89-8-12.93-11.72-11.54-3.59-22-7.66-31.47C532.09,253.3,563.94,271.49,554.88,302.84Z"/><path class="cls-3" d="M563.35,331.67a.57.57,0,0,1-.57-.47c-4.29-22.69-18.86-54.28-19-54.6a.58.58,0,0,1,1.05-.49c.15.32,14.78,32,19.1,54.87a.58.58,0,0,1-.47.68Z"/><path class="cls-3" d="M581.24,314.26c-.76.23-12-25.35,3.49-33.67s15.67-10.07,19.73-18.78,13.94-6.19,13.94-6.19-7.36,1.75-6.78,11.81.2,13.55-7.93,21.19S610.85,305,581.24,314.26Z"/><path class="cls-8" d="M582.79,330.9a.59.59,0,0,1-.57-.48c-4.45-23.9,9.54-43.31,9.68-43.5a.58.58,0,1,1,.94.69c-.14.18-13.83,19.2-9.48,42.6a.58.58,0,0,1-.46.68Z"/><path class="cls-4" d="M576.12,393.61H561.53a5.89,5.89,0,0,1-5.87-5.4l-5-59.15h35.86L582,388.17A5.89,5.89,0,0,1,576.12,393.61Z"/><polygon class="cls-9" points="317.04 99.99 315.14 167.01 431.62 167.01 430.11 99.99 317.04 99.99"/><rect class="cls-2" x="317.04" y="99.99" width="113.07" height="65.17"/><rect class="cls-9" x="322.01" y="104.29" width="103.12" height="55.8"/><polygon class="cls-9" points="466.09 103.37 464.5 163.63 493.86 163.63 492.32 103.37 466.09 103.37"/><rect class="cls-2" x="466.09" y="103.37" width="26.24" height="58.41"/><rect class="cls-9" x="468.5" y="106.44" width="21.21" height="52.26"/><polygon class="cls-9" points="501.75 103.37 500.16 163.63 529.52 163.63 527.99 103.37 501.75 103.37"/><rect class="cls-2" x="501.75" y="103.37" width="26.24" height="58.41"/><rect class="cls-9" x="504.16" y="106.44" width="21.21" height="52.26"/><polygon class="cls-9" points="537.21 103.37 535.62 163.63 564.98 163.63 563.44 103.37 537.21 103.37"/><rect class="cls-2" x="537.21" y="103.37" width="26.24" height="58.41"/><rect class="cls-9" x="539.62" y="106.44" width="21.21" height="52.26"/><polygon class="cls-9" points="205.42 113.92 204.15 119.25 271.37 119.25 270.09 113.92 205.42 113.92"/><rect class="cls-2" x="205.42" y="113.92" width="64.67" height="4.1"/><rect class="cls-9" x="210.09" y="84" width="4.71" height="29.92"/><rect class="cls-10" x="214.81" y="88.92" width="4.71" height="25.01"/><rect class="cls-9" x="219.52" y="94.04" width="4.71" height="19.88"/><rect class="cls-9" x="244.57" y="98.51" width="4.71" height="26.12" transform="translate(358.5 -135.36) rotate(90)"/><polygon class="cls-9" points="205.42 153.48 204.15 158.81 271.37 158.81 270.09 153.48 205.42 153.48"/><rect class="cls-2" x="205.42" y="153.48" width="64.67" height="4.1"/><rect class="cls-9" x="210.09" y="133.6" width="4.71" height="19.88"/><rect class="cls-10" x="214.81" y="128.48" width="4.71" height="25.01"/><rect class="cls-9" x="219.52" y="133.6" width="4.71" height="19.88"/><rect class="cls-10" x="246.13" y="137.53" width="4.71" height="27.18" transform="translate(399.61 -97.36) rotate(90)"/><rect class="cls-9" x="246.07" y="132.72" width="4.71" height="31.62" transform="translate(430.18 -76.73) rotate(98.02)"/><path class="cls-7" d="M253.54,393.61h38s-16,1.92-7.07,6.33,49.51,5.64,59.65,1.34-8.93-7.67-8.93-7.67H372s8.38,7.75,32.05,8c32.28.3,36.28-8.14,36.28-8.14h77.47L482.3,369.81H266l-32.24,23.8Z"/><rect class="cls-5" x="249.38" y="369.81" width="245.47" height="6.39" rx="3.19"/><path class="cls-4" d="M529.89,280l-11.44,41H226.26l-2-37.24,8-31a18.58,18.58,0,0,1,18-13.8H502.62a19.25,19.25,0,0,1,17.89,12.22c.19.48.35.95.5,1.45Z"/><path class="cls-7" d="M318,240.24s-15.87,33.85,4.65,59.17H282.35V239Z"/><path class="cls-7" d="M520.51,251.22c-3.17,3.46-7.87,8-11,8.56a82.59,82.59,0,0,1-12,.77l-15,52-24.41-46.52C424.86,265,400.43,247.15,391,239h14.18l50.15,10.85,27.29-7.39,20.3,6.6,11.86-5.74A19.16,19.16,0,0,1,520.51,251.22Z"/><polygon class="cls-4" points="505.49 321.05 480.91 369.81 256.06 369.81 238.5 321.05 505.49 321.05"/><path class="cls-7" d="M373.25,369.81H359.41L341,342.62a28,28,0,0,0-18.63-11.92l-13.92-2.3v41.41H287.72l-6.06-34.45-15.11-14.31h72.38Z"/><polygon class="cls-7" points="470.03 321.05 451.3 324.73 441.06 369.81 431.06 369.81 425.96 332.66 396.74 354.66 412.7 321.05 470.03 321.05"/><rect class="cls-5" x="233.79" y="306.18" width="281.37" height="14.84"/><path class="cls-3" d="M274.25,369.81H260.92a26.92,26.92,0,0,1-24.46-15.25L218.8,316.87l-4-8.58,6.52-9.63,10.06-14.85Z"/><path class="cls-4" d="M218.8,316.87l-4-8.58,6.52-9.63,12.13-4.39S237.38,312.34,218.8,316.87Z"/><ellipse class="cls-3" cx="216.65" cy="291.98" rx="16.96" ry="16.42"/><path class="cls-3" d="M469.26,369.81h13a26.31,26.31,0,0,0,23.93-15.11l17.28-37.32,3.93-8.5-6.38-9.54-9.84-14.71Z"/><path class="cls-4" d="M523.51,317.38l3.93-8.5-6.38-9.54L509.19,295S505.33,312.89,523.51,317.38Z"/><ellipse class="cls-3" cx="525.61" cy="292.72" rx="16.59" ry="16.26"/><path class="cls-11" d="M260.32,376.2l-6.78,17.41h2.82a7,7,0,0,0,6-3.38l8.58-14Z"/><path class="cls-11" d="M485.71,376.2l6.78,17.41h-2.82a7,7,0,0,1-6-3.38l-8.58-14Z"/><path class="cls-12" d="M351.75,239H366.6s-2.66-5.51-5.56-6.48a13.36,13.36,0,0,0-6.05-.34L351.36,231Z"/><path class="cls-13" d="M352.53,237.35a10.06,10.06,0,0,1-.32,1.11h0a8.25,8.25,0,0,1-.94,2.08c-26.71-1.55-43,.39-43,.39l-8.6,6.09-2.86,2a98.17,98.17,0,0,0,.81,16.58v0c2.7,19.17,10.65,26.72,10.65,26.72-31.74-1.92-58.83,17.81-58.83,17.81l-1-14.42-.78-11.7a10.69,10.69,0,0,1-3.71.52c-13.34-.58-7.46-33-1.17-46.57a25.33,25.33,0,0,1,2.17-3.87,18.56,18.56,0,0,1,2.27-2.58c5.69-5.38,14.77-7.57,20-8.43,2.46-.41,4.06-.51,4.06-.51,5.12-.51,10.56-.73,16.07-.74,31.31-.07,65.6,6.64,65.6,6.64A26.66,26.66,0,0,1,352.53,237.35Z"/><path class="cls-14" d="M297.66,265.64v0c0,.54-.26,7.67-14.22,5.3,0,0-18.52,17.76-34.92,24.81l-.78-11.7a10.69,10.69,0,0,1-3.71.52c-13.34-.58-7.46-33-1.17-46.57l9.45-6.45s5.59-.66,6.24,12.69.8,15.23.8,15.23l18.6-2.9Z"/><path class="cls-15" d="M289.15,235.26c-1.65,3.91-14.13,4.78-20.07-1.8-4.91-5.43-2.61-9.31-1.8-10.3,2.46-.41,4.06-.51,4.06-.51,5.12-.51,8.14,0,13.65,0C283.44,226.88,290.58,231.87,289.15,235.26Z"/><path class="cls-14" d="M352.21,238.46h0a8.25,8.25,0,0,1-.94,2.08c-26.71-1.55-43,.39-43,.39l-8.6,6.09-2.86,2,12.83-11.92S327.94,234.05,352.21,238.46Z"/><path class="cls-15" d="M352.53,237.35a10.27,10.27,0,0,1-.32,1.12c-20-3-40.27-1.51-42.53-1.33l-10,9.89-2.45,2.44-.41-.41-.41-.4L309.16,236l.21,0C309.59,236,331.25,234.11,352.53,237.35Z"/><path class="cls-12" d="M366.35,366.73l9.31,15.56s-.6,8.91.08,10.08,4.92,1.28,11.8.85c7.35-.47,11.61.77,13.35-.38s2.41-4.13,0-3.86a8.76,8.76,0,0,1-2.13.1s-12.09-6.49-13-7.36-5.9-18.19-5.9-18.19Z"/><path class="cls-16" d="M312.37,319.31l22.06,5.8s20.32,31.46,29.41,43.26c0,0,10.26,1.74,18-4.84,0,0-27.87-57.58-37.73-64.16s-37.75-9-37.75-9Z"/><path class="cls-17" d="M269.9,219.6s-8.88-11.17-7.72-20.24,6.25-8.06,6.25-8.06-3-4.57-.37-7.47,2.39,4.5,2.39,4.5.87-5.34,7.84-5.18,12.33,9,16.62,8.51,8.12-1.08,3,3.2a28.31,28.31,0,0,0,4.06.58c1.82.07.51,7.33-10.95,7.33l-11.76,9.73Z"/><path class="cls-18" d="M277.71,234.91a16.47,16.47,0,0,1-2-.38,8.92,8.92,0,0,1-6.44-10.31,60.68,60.68,0,0,0,1-11.74v0q0-.78,0-1.32c0-.71-.07-1.09-.07-1.09l1.51,1.18L285.46,222a6.54,6.54,0,0,0-.57,7.46,11.7,11.7,0,0,1,.93,2.13C287,235.33,283.94,235.72,277.71,234.91Z"/><path class="cls-19" d="M285.82,231.59c-11.91-2.31-14.88-14.91-15.56-19.11v0c-.14-.83-.17-1.33-.17-1.33h.14l1.44.09L285.46,222a6.54,6.54,0,0,0-.57,7.46A11.7,11.7,0,0,1,285.82,231.59Z"/><path class="cls-18" d="M291,202.77a36,36,0,0,1-2.35,19,3.77,3.77,0,0,1-4.31,2.29c-4.83-1.08-13.64-4.37-14.17-14.09a6.82,6.82,0,0,1-1.62-5.66c.63-3.34,4.4-.58,4.21,4.31,0,0,3.1-1.79,1.84-8.27,0,0,5.37,5.56,9.72,4.93s.68-3.72.68-3.72A12.74,12.74,0,0,0,291,202.77Z"/><path class="cls-6" d="M294.85,267h0a6.83,6.83,0,0,1-8.54-4.53L283,251.71l13.07-4,3.3,10.75A6.83,6.83,0,0,1,294.85,267Z"/><path class="cls-18" d="M277.44,259.17l2.08-1.06s1.07-3.44,3.87-4.55l1.16,3.49a21.3,21.3,0,0,0,7.11-2.23,12,12,0,0,0,4.12-4.74c.53-.73,1.79.24.67,3.92s.49,6.53-1.25,10.16-11.9,1.9-11.9,1.9l-3.12,1.58Z"/><path class="cls-20" d="M281.12,267.64c-18.08,13.77-32.23,16.45-37.09,17-14.88-.65-5.85-40.9,1-50.44a18.56,18.56,0,0,1,2.27-2.58,9.57,9.57,0,0,1,4.24-2,3.66,3.66,0,0,1,1.52,0c5,1.22,4.94,12.94,3.83,19.46-1.47,8.42-2.48,15.39-2.48,15.39L278,256.61l.58,2,1.62,5.66.34,1.19.51,1.75Z"/><path class="cls-15" d="M280.49,265.47c-.28.18-.56.38-.83.57-12.35,8.3-25.49,12.77-30.1,14.34a11.7,11.7,0,0,1-3.71.69,5.9,5.9,0,0,1-3.89-1.31c-3.45-2.82-4.31-10.27-2.64-22.78a51.42,51.42,0,0,1,12.22-27.42,3.66,3.66,0,0,1,1.52,0,49.9,49.9,0,0,0-12.58,27.53c-1.6,11.9-.86,19.22,2.21,21.74,1.52,1.25,3.64,1.38,6.5.41,4.61-1.56,17.8-6.06,30.09-14.4.29-.19.58-.4.87-.6Z"/><path class="cls-18" d="M298,370l1,16.36s-2.22,9.48-.48,10.35,14.12.77,16,0,3.39-5.81-.87-3.87c0,0-3.48-3.87-4.35-7.16a28.16,28.16,0,0,0-.68-3.68c-.39-1.26.19-14.51.19-14.51Z"/><path class="cls-21" d="M311.6,371c-7.55,1.74-17,0-17,0-5.14-20.11-6.91-43.34-7.31-49.63-.07-1.07-.1-1.65-.1-1.65-10.8,2.59-18.52,2.74-24,1.65h0c-13.45-2.67-13.75-12.73-13.75-12.73C267.27,292.71,298,279,308.31,292.4S311.6,371,311.6,371Z"/><path class="cls-22" d="M287.27,321.34c-.07-1.07-.1-1.65-.1-1.65-10.8,2.59-18.52,2.74-24,1.65,17.26-.75,21.3-18.15,21.3-18.15C287.5,314.66,287.27,321.34,287.27,321.34Z"/><path class="cls-6" d="M401.14,397.33"/><path class="cls-6" d="M295.78,397.33"/><path class="cls-12" d="M532.52,219.71s4.08-3.62,7.17-3.88-2.8,2.56-2.58,4.24S532.52,219.71,532.52,219.71Z"/><path class="cls-18" d="M502.19,240.7l4.94,2.83s24.1-24,26.13-24.19,4.93,1.35,6.87,1.45,9-5.42,10.06-4.93-5.81,8.55-7.64,9-9.1,1.28-9.49,1.67-19.93,27.09-24.76,28.83S497.54,254,497.54,254Z"/><path class="cls-18" d="M429.3,254.27a154,154,0,0,1-41.75-16s-4.26,5.81-7.94,5.71,2-3.66,2.57-5.4h-8.8s5.56-5.53,10-6.4a13.46,13.46,0,0,1,7.93.87s25.36,8.11,38,8.26Z"/><path class="cls-23" d="M502.88,241.2l-5.81,13.94-4.13-1.9-.27-.11-4.15-1.91,0,.11c-.22.67-1.46,4.45-2.67,8.45-1.24,4.18-2.45,8.6-2.38,10,.09,2,4.49,12.91,6.58,20.09a16.37,16.37,0,0,1,.57,6.37l-42.85-14.85s3.79-15,2.9-17.14c-.68-1.62-4.49-3-6.45-9.86l-5.07.54L429.3,256V241.36s7.69-4.51,17.42-11.19,12.33-4.79,12.33-4.79l7.2.3s7.75-2.18,13.7.43S502.88,241.2,502.88,241.2Z"/><path class="cls-24" d="M447.44,244.26c-3.3,6.54-3.26,10.15-3.26,10.15l-5.07.54A14.81,14.81,0,0,1,443,244c5.95-6.17,6-8.19,6-8.19S449.22,240.72,447.44,244.26Z"/><path class="cls-24" d="M488.48,251.33c-.22.67-1.46,4.45-2.67,8.45-4.73-4.62-6.73-12.48-6.73-12.48Z"/><path class="cls-25" d="M467.11,222.54s10.8,3.79,14.21-3.16-.5-14.64-6.61-7.85c0,0,6-13.85-5.07-22.57-8.48-6.67-20.07-5.35-20.37,2.46,0,0-3.73-3.57-6.83.3s2.3,18,2.3,18-5.91-6.15-7,1.42,7.85,15,14.05,7.39Z"/><path class="cls-18" d="M471.73,226.89s-4.65,7.44-13.36,5.41a27.29,27.29,0,0,0,.07-4.82,25.15,25.15,0,0,0-1.17-6.2l8.5-9.95,1-1.18S466.89,220.69,471.73,226.89Z"/><path class="cls-19" d="M466.23,214.09c.23,9.62-4.71,12.51-7.79,13.39a25.15,25.15,0,0,0-1.17-6.2l8.5-9.95A7.81,7.81,0,0,1,466.23,214.09Z"/><path class="cls-18" d="M447.07,202.87s1.07,19.75,6.87,20.12,12.19-5.31,13.37-11.41c0,0,1.92-.69,1.95-4s-3-4-3.73,1.38A15.41,15.41,0,0,1,450,197.13S449.41,200.87,447.07,202.87Z"/><path class="cls-12" d="M423.4,367.49V379.2s-4.64,6.28-7.93,7.45-8.81,5.12-2.71,5.41,16.24.83,19.05-.26c1.09-.42-.57-11.88-.57-11.88l3.39-12.43Z"/><path class="cls-18" d="M412.76,392.06s11.61.49,12.05,0-2.62-4.54-4-2.66a2.62,2.62,0,0,0-4.13.37s-2.47-1.67-3.49,0c0,0-1.92-2.47-3.17-.8S409.06,392.26,412.76,392.06Z"/><path class="cls-26" d="M445.44,299.67l2.1-2.94-14.76-4L412,308.42,423,320.63l-.12,6.59-.84,43s5.22,2.9,15.09,0l7.55-48.77s30.86,3.42,39.71-6.7Z"/><path class="cls-12" d="M396.84,336.82s-2.81,5.13-4.45,5.51-4.74,2.52-8,2.81-6.05,1.45-3.93,3.58,8.71,5.51,11.61,6.87,4.75.19,5.52-3.19a15.8,15.8,0,0,1,3.1-6.39c.77-1.06,6.87-7.35,6.87-7.35Z"/><path class="cls-18" d="M394.17,356.14s-3.33-7.42-10.44-7.86c0,0-1-3.72-3.1-3.43s-2.65,3,2.75,6S392.63,356.11,394.17,356.14Z"/><path class="cls-27" d="M490.54,295.79s2.85,25.32-19.21,20.48-33.47-19.54-33.47-19.54-15.29,4.45-14.9,23.8l-14.52,22.25s-5.61,1.74-13.54-6.77c0,0,21.67-51.28,32.89-56.7S460.88,280.89,490.54,295.79Z"/><path class="cls-28" d="M415.39,191.63h4.93a6.3,6.3,0,0,0,6.3-6.3v-23.5a6.3,6.3,0,0,0-6.3-6.3H368.06a6.3,6.3,0,0,0-6.3,6.3v23.5a6.3,6.3,0,0,0,6.3,6.3h40.27c6.11,15.87,19.71,9.51,19.71,9.51C418.68,201.37,415.39,191.63,415.39,191.63Z"/><rect class="cls-2" x="372.13" y="164.99" width="40.74" height="2.58"/><rect class="cls-2" x="372.13" y="171.86" width="40.74" height="2.58"/><rect class="cls-2" x="372.13" y="178.74" width="22.77" height="2.58"/></g></g></svg>